<?xml version="1.0" encoding="UTF-8" standalone="no"?>
<svg width="48px" height="48px" viewBox="0 0 48 48" version="1.1" xmlns="http://www.w3.org/2000/svg" xmlns:xlink="http://www.w3.org/1999/xlink" xmlns:sketch="http://www.bohemiancoding.com/sketch/ns">
    <title>ijc-48</title>
    <description>Created with Sketch (http://www.bohemiancoding.com/sketch)</description>
    <defs/>
    <g id="Logins" stroke="none" stroke-width="1" fill="none" fill-rule="evenodd">
        <path d="M39.5199369,9.51851852 L29.7244687,9.51851852 L24.8258862,1 L8.17375991,1 L-0.154,15.4814815 L4.74458249,24 L-0.154,32.5185185 L8.17375991,47 L24.8258862,47 L29.7244687,38.4814815 L39.5199369,38.4814815 L47.846,24 L39.5199369,9.51851852 L39.5199369,9.51851852 Z M26.2952912,24 L31.1938737,15.4814815 L29.7244687,12.9259259 L37.5618613,12.9259259 L43.9298488,24 L37.5618613,35.0740741 L29.7244687,35.0740741 L31.1938737,32.5185185 L26.2952912,24 L26.2952912,24 Z M10.1301387,43.5925926 L3.76384793,32.5185185 L7.68169585,25.7037037 L9.15110092,28.2592593 L18.9465691,28.2592593 L23.8451516,36.7777778 L26.7839618,36.7777778 L22.8644171,43.5925926 L10.1301387,43.5925926 L10.1301387,43.5925926 Z M22.8661138,4.40740741 L26.7856585,11.2222222 L23.8468484,11.2222222 L18.9482659,19.7407407 L9.1527977,19.7407407 L7.68339263,22.2962963 L3.7655447,15.4814815 L10.1318355,4.40740741 L22.8661138,4.40740741 L22.8661138,4.40740741 Z M23.8451516,19.7407407 L20.9063415,19.7407407 L24.8241894,12.9259259 L27.7629995,12.9259259 L29.2324046,15.4814815 L25.3128599,22.2962963 L23.8451516,19.7407407 L23.8451516,19.7407407 Z M24.3355189,24 L22.8661138,26.5555556 L19.9273037,26.5555556 L18.4578986,24 L19.9273037,21.4444444 L22.8661138,21.4444444 L24.3355189,24 L24.3355189,24 Z M17.9675313,26.5555556 L10.1301387,26.5555556 L8.66073364,24 L10.1301387,21.4444444 L17.9675313,21.4444444 L16.4981263,24 L17.9675313,26.5555556 L17.9675313,26.5555556 Z M24.8241894,35.0740741 L20.9063415,28.2592593 L23.8451516,28.2592593 L25.3145567,25.7037037 L29.2341014,32.5185185 L27.7646963,35.0740741 L24.8241894,35.0740741 L24.8241894,35.0740741 Z M24.8241894,35.0740741" id="Shape" fill="#111111"/>
    </g>
</svg>